<svg width="19" height="19" viewBox="0 0 19 19" fill="none" xmlns="http://www.w3.org/2000/svg">
<path fill-rule="evenodd" clip-rule="evenodd" d="M2.5249 11.05C2.5249 10.8444 2.60655 10.6473 2.75189 10.5019C2.89724 10.3566 3.09436 10.275 3.2999 10.275H12.5999C13.2165 10.275 13.8079 10.03 14.2439 9.59397C14.6799 9.15795 14.9249 8.56658 14.9249 7.94995V4.84995C14.9249 4.64441 15.0066 4.44728 15.1519 4.30194C15.2972 4.1566 15.4944 4.07495 15.6999 4.07495C15.9054 4.07495 16.1026 4.1566 16.2479 4.30194C16.3933 4.44728 16.4749 4.64441 16.4749 4.84995V7.94995C16.4749 8.97766 16.0666 9.96329 15.3399 10.69C14.6132 11.4167 13.6276 11.825 12.5999 11.825H3.2999C3.09436 11.825 2.89724 11.7433 2.75189 11.598C2.60655 11.4526 2.5249 11.2555 2.5249 11.05Z" fill="white" style="fill:white;fill-opacity:1;"/>
<path fill-rule="evenodd" clip-rule="evenodd" d="M2.75206 11.5978C2.60677 11.4525 2.52515 11.2554 2.52515 11.0499C2.52515 10.8444 2.60677 10.6473 2.75206 10.502L5.85206 7.402C5.99822 7.26083 6.19399 7.18271 6.39719 7.18448C6.60039 7.18624 6.79477 7.26775 6.93847 7.41144C7.08216 7.55513 7.16366 7.74951 7.16543 7.95271C7.16719 8.15592 7.08908 8.35168 6.94791 8.49785L4.39583 11.0499L6.94791 13.602C7.02193 13.6735 7.08097 13.759 7.12158 13.8536C7.1622 13.9481 7.18358 14.0498 7.18448 14.1527C7.18537 14.2556 7.16576 14.3577 7.12679 14.4529C7.08782 14.5482 7.03028 14.6347 6.95751 14.7075C6.88474 14.7802 6.79821 14.8378 6.70297 14.8767C6.60773 14.9157 6.50567 14.9353 6.40277 14.9344C6.29987 14.9335 6.19817 14.9121 6.10362 14.8715C6.00906 14.8309 5.92355 14.7719 5.85206 14.6979L2.75206 11.5978Z" fill="white" style="fill:white;fill-opacity:1;"/>
</svg>
